<svg class="iconButton__svg" xmlns="http://www.w3.org/2000/svg" width="18" height="18"><defs><style>.aApplications{fill:#828289}</style></defs><path class="aApplications" d="M0 .667v2.666A.67.67 0 00.667 4h2.666A.67.67 0 004 3.333V.667A.67.67 0 003.333 0H.667A.67.67 0 000 .667zM7 .667v2.666A.67.67 0 007.667 4h2.666A.67.67 0 0011 3.333V.667A.67.67 0 0010.333 0H7.667A.67.67 0 007 .667zM14 .667v2.666a.67.67 0 00.667.667h2.666A.67.67 0 0018 3.333V.667A.67.67 0 0017.333 0h-2.666A.67.67 0 0014 .667zM0 7.667v2.666A.67.67 0 00.667 11h2.666A.67.67 0 004 10.333V7.667A.67.67 0 003.333 7H.667A.67.67 0 000 7.667zM7 7.667v2.666a.67.67 0 00.667.667h2.666a.67.67 0 00.667-.667V7.667A.67.67 0 0010.333 7H7.667A.67.67 0 007 7.667zM14 7.667v2.666a.67.67 0 00.667.667h2.666a.67.67 0 00.667-.667V7.667A.67.67 0 0017.333 7h-2.666a.67.67 0 00-.667.667zM0 14.667v2.666A.67.67 0 00.667 18h2.666A.67.67 0 004 17.333v-2.666A.67.67 0 003.333 14H.667a.67.67 0 00-.667.667zM7 14.667v2.666a.67.67 0 00.667.667h2.666a.67.67 0 00.667-.667v-2.666a.67.67 0 00-.667-.667H7.667a.67.67 0 00-.667.667zM14 14.667v2.666a.67.67 0 00.667.667h2.666a.67.67 0 00.667-.667v-2.666a.67.67 0 00-.667-.667h-2.666a.67.67 0 00-.667.667z"/></svg>