<svg xmlns="http://www.w3.org/2000/svg" width="42.6" height="42.021"><defs><style>.aCommunity,.bCommunity{fill:none;stroke:#828289;stroke-linecap:round;stroke-miterlimit:10;stroke-width:1.6px}.bCommunity{stroke-linejoin:round}</style></defs><path class="aCommunity svgHover" d="M7.245 6.617h15.22M7.245 11.469H22.32M7.245 16.237h15.051"/><path class="bCommunity color" d="M25.868 21.789H14.245l-6.964 9.5-.012-.76v-8.74a.012.012 0 00-.012-.012H3.866A2.968 2.968 0 01.8 18.928V3.648A2.968 2.968 0 013.866.8h22a2.968 2.968 0 013.066 2.848v15.3a2.958 2.958 0 01-3.064 2.841z"/><path class="bCommunity color" d="M18.373 24.673v6.088a2.455 2.455 0 002.378 2.523H31.36l5.214 7.942h.012v-7.942h2.836a2.455 2.455 0 002.378-2.523V18.084a2.455 2.455 0 00-2.378-2.523h-6.988"/></svg>