<svg xmlns="http://www.w3.org/2000/svg" width="41.6" height="41.6"><defs><style>.aCommerce,.bCommerce{fill:none;stroke:#828289;stroke-linecap:round;stroke-miterlimit:10;stroke-width:1.6px}.bCommerce{stroke-linejoin:round}.cCommerce{fill:#828289}</style></defs><path class="aCommerce color" d="M38.457 29.54H3.143A2.35 2.35 0 01.8 27.2V3.143A2.35 2.35 0 013.143.8h35.314A2.35 2.35 0 0140.8 3.143V27.2a2.335 2.335 0 01-2.343 2.34z"/><path class="bCommerce color" d="M26.026 37.051H15.2l.9-7.487h9.022z"/><path class="aCommerce color" d="M3.542 25.182h34.423M12.071 40.8h17.434M29.552 40.73a3.718 3.718 0 00-3.761-3.679M12.071 40.73a3.718 3.718 0 013.761-3.679"/><g transform="translate(12.539 6.807)"><path class="bCommerce svgHover" d="M0 0h1.851l2.468 9.332h7.774l1.851-6.852H4.689"/><ellipse class="cCommerce svgHover" cx=".972" cy=".963" rx=".972" ry=".963" transform="translate(4.405 11.414)"/><ellipse class="cCommerce svgHover" cx=".972" cy=".963" rx=".972" ry=".963" transform="translate(10.237 11.414)"/></g></svg>