<svg xmlns="http://www.w3.org/2000/svg" width="38" height="38"><defs><style>.aMy3shape,.cMy3shape{fill:none;overflow:visible}.aMy3shape{stroke:#828289;stroke-width:1.6px}.bMy3shape{stroke:none}</style></defs><g class="aMy3shape svgHover"><rect class="bMy3shape" width="10" height="10" rx="3"/><rect class="cMy3shape" x=".8" y=".8" width="8.4" height="8.4" rx="2.2"/></g><g class="aMy3shape color" transform="translate(0 14)"><rect class="bMy3shape" width="10" height="10" rx="3"/><rect class="cMy3shape" x=".8" y=".8" width="8.4" height="8.4" rx="2.2"/></g><g class="aMy3shape color" transform="translate(0 28)"><rect class="bMy3shape" width="10" height="10" rx="3"/><rect class="cMy3shape" x=".8" y=".8" width="8.4" height="8.4" rx="2.2"/></g><g class="aMy3shape color" transform="translate(14 14)"><rect class="bMy3shape" width="10" height="10" rx="3"/><rect class="cMy3shape" x=".8" y=".8" width="8.4" height="8.4" rx="2.2"/></g><g class="aMy3shape color" transform="translate(14)"><rect class="bMy3shape" width="10" height="10" rx="3"/><rect class="cMy3shape" x=".8" y=".8" width="8.4" height="8.4" rx="2.2"/></g><g class="aMy3shape color" transform="translate(14 28)"><rect class="bMy3shape" width="10" height="10" rx="3"/><rect class="cMy3shape" x=".8" y=".8" width="8.4" height="8.4" rx="2.2"/></g><g class="aMy3shape color" transform="translate(28 28)"><rect class="bMy3shape" width="10" height="10" rx="3"/><rect class="cMy3shape" x=".8" y=".8" width="8.4" height="8.4" rx="2.2"/></g><g class="aMy3shape color" transform="translate(28 14)"><rect class="bMy3shape" width="10" height="10" rx="3"/><rect class="cMy3shape" x=".8" y=".8" width="8.4" height="8.4" rx="2.2"/></g><g class="aMy3shape color" transform="translate(28)"><rect class="bMy3shape" width="10" height="10" rx="3"/><rect class="cMy3shape" x=".8" y=".8" width="8.4" height="8.4" rx="2.2"/></g></svg>