<svg xmlns="http://www.w3.org/2000/svg" width="41.6" height="41.659"><defs><style>.aPortal{fill:none;stroke:#828289;stroke-linecap:round;stroke-miterlimit:10;stroke-width:1.6px}</style></defs><g transform="translate(-16.53 .8)"><circle class="aPortal svgHover" cx="3.527" cy="3.527" transform="translate(20.382 .119)" r="3.527"/><path class="aPortal color" d="M17.378 24.275l-.048-7.767a6.663 6.663 0 016.615-6.722 6.535 6.535 0 014.785 2.09"/><ellipse class="aPortal svgHover" cx="3.658" cy="3.646" rx="3.658" ry="3.646" transform="translate(33.672)"/><path class="aPortal color" d="M45.311 24.466v-6.508a8.249 8.249 0 00-16.485 0v6.413"/><circle class="svgHover" cx="3.527" cy="3.527" transform="translate(47.151 .119)" stroke-linejoin="round" fill="none" stroke="#828289" stroke-linecap="round" stroke-miterlimit="10" stroke-width="1.6" r="3.527"/><path class="aPortal color" d="M45.703 12.126a6.538 6.538 0 015.012-2.34 6.679 6.679 0 016.615 6.722v8.052M41.403 16.437v23.622M53.529 16.437v23.456M32.757 16.437v23.622M20.857 16.437v23.456M37.092 27.458v12.399M24.764 28.266v11.591M49.55 28.135v11.722M18.802 27.161a3.28 3.28 0 01-1.437-2.684M30.251 27.161a3.28 3.28 0 01-1.437-2.684M43.885 27.161a3.28 3.28 0 001.437-2.684M55.881 27.197a3.28 3.28 0 001.437-2.684"/></g></svg>